<?xml version="1.0" standalone="no"?>
<!DOCTYPE svg PUBLIC "-//W3C//DTD SVG 20010904//EN"
 "http://www.w3.org/TR/2001/REC-SVG-20010904/DTD/svg10.dtd">
<svg version="1.0" xmlns="http://www.w3.org/2000/svg"
 width="447.000000pt" height="558.000000pt" viewBox="0 0 447.000000 558.000000"
 preserveAspectRatio="xMidYMid meet">
<metadata>
Created by potrace 1.16, written by Peter Selinger 2001-2019
</metadata>
<g transform="translate(0.000000,558.000000) scale(0.100000,-0.100000)"
fill="#000000" stroke="none">
<path d="M0 2790 l0 -2790 2235 0 2235 0 0 2790 0 2790 -2235 0 -2235 0 0
-2790z m2160 1860 c0 -5 -23 -10 -51 -10 -112 0 -323 -57 -454 -123 -168 -83
-361 -251 -477 -413 -66 -92 -155 -259 -193 -359 -34 -92 -75 -245 -75 -283 0
-17 -5 -43 -10 -58 l-11 -27 -15 21 c-8 12 -24 22 -34 22 -10 0 -21 4 -25 10
-3 5 -12 7 -20 3 -21 -8 -19 60 4 167 79 357 292 666 587 855 165 106 356 174
559 198 69 9 215 7 215 -3z m388 -382 l-3 -73 -70 0 -70 0 -3 59 c-4 85 -4 86
78 86 l71 0 -3 -72z m-140 -235 l-3 -78 -80 0 -80 0 -3 64 c-2 35 -1 70 2 77
4 10 27 14 86 14 l81 0 -3 -77z m1055 -271 c54 -82 88 -152 127 -260 28 -78
39 -130 22 -107 -10 15 -31 13 -43 -5 -7 -11 -9 -2 -7 33 2 26 0 47 -3 47 -3
0 -12 19 -19 43 -26 82 -93 242 -117 279 -12 21 -23 40 -23 43 0 15 22 -11 63
-73z m-1470 -117 c9 -20 17 -57 17 -83 l0 -48 -37 3 c-21 1 -29 0 -18 -3 45
-12 46 -13 35 -34 -8 -14 -17 -19 -33 -15 -31 7 -56 -10 -39 -27 10 -10 17
-10 32 0 28 17 26 -1 -5 -64 -24 -49 -90 -113 -138 -135 -21 -10 -33 -8 -71
11 -25 12 -46 25 -46 30 0 4 -7 10 -15 14 -13 4 -13 2 -5 -14 5 -10 15 -22 20
-25 6 -4 8 -10 5 -15 -3 -5 6 -7 21 -4 15 3 23 1 20 -5 -4 -5 -2 -12 4 -16 34
-21 -19 -116 -74 -135 -27 -9 -41 -8 -68 3 -64 28 -135 114 -156 190 -12 44
-2 60 50 77 35 11 98 69 98 91 0 6 5 7 10 4 19 -12 10 4 -16 28 -32 30 -42 93
-20 122 20 27 48 10 60 -38 11 -41 20 -46 35 -19 7 14 30 22 81 31 85 14 147
41 185 81 37 39 48 38 68 -5z m911 -102 c3 -10 19 -27 36 -38 16 -11 34 -33
40 -48 11 -34 26 -28 35 12 8 36 27 53 49 45 36 -14 10 -144 -29 -144 -8 0
-15 -5 -15 -10 0 -20 29 -68 45 -73 39 -16 -5 -135 -64 -174 -49 -33 -74 -30
-92 11 -14 31 -14 34 0 29 13 -4 13 -3 2 5 -10 7 -22 7 -37 0 -51 -24 -183 78
-199 153 -4 19 -16 51 -26 71 -25 50 -24 55 14 73 17 8 43 22 57 32 23 17 24
17 17 0 -6 -15 -4 -16 16 -6 12 7 33 20 46 31 16 12 27 15 31 8 4 -6 16 0 30
15 28 30 37 31 44 8z m-408 -349 c16 -29 15 -34 -9 -105 -14 -40 -28 -82 -32
-91 -5 -14 2 -21 34 -34 26 -10 47 -28 57 -46 16 -31 36 -33 40 -4 1 10 4 20
6 22 9 9 80 -21 89 -38 7 -13 21 -18 49 -18 87 0 98 -25 69 -156 -11 -52 -18
-98 -14 -103 3 -5 1 -12 -4 -16 -5 -3 -10 -13 -10 -23 1 -9 -2 -27 -6 -39 -7
-21 -4 -23 36 -23 64 -1 130 -16 140 -31 19 -30 8 -34 -78 -31 -169 7 -332
-43 -465 -142 -58 -43 -60 -44 -142 -45 l-83 -1 -64 49 c-137 103 -249 140
-451 150 l-137 6 12 25 c13 24 15 25 107 22 52 -2 104 -8 116 -12 16 -7 24 -5
28 6 8 22 -5 78 -21 87 -10 6 -13 22 -11 50 1 23 -1 75 -6 115 -7 61 -6 76 8
91 9 10 13 21 9 25 -4 4 1 4 10 0 12 -4 17 -2 15 6 -2 7 3 15 10 17 6 3 12 -2
12 -11 0 -20 26 -21 34 -1 3 8 14 15 25 15 16 0 36 24 33 40 0 3 8 6 19 6 21
0 22 -16 4 -58 -11 -28 13 -22 39 9 17 20 34 28 61 29 23 0 43 8 50 18 10 13
14 14 18 4 3 -7 6 -3 6 10 1 12 6 22 12 22 5 0 7 -4 4 -10 -3 -5 10 0 29 13
19 12 35 27 36 34 0 22 -23 63 -36 63 -19 0 -46 56 -42 88 2 19 9 27 22 27 19
0 29 -12 41 -50 6 -19 7 -18 20 6 17 31 27 36 97 45 62 8 113 32 148 69 l24
26 13 -38 c7 -21 20 -52 29 -69z"/>
</g>
</svg>
