<svg width="720" height="640" viewBox="0 0 720 640" fill="none" xmlns="http://www.w3.org/2000/svg">
  <g opacity="0.52" fill="#F5E2BE">
    <path d="M164 118C190 78 239 51 296 42C349 34 415 44 468 71C511 93 544 122 564 161C534 154 501 149 467 146C424 141 382 145 344 158C302 172 269 193 244 220C223 243 209 271 201 305C182 278 166 248 156 215C146 182 148 148 164 118Z"/>
    <path d="M194 156C227 138 270 130 316 131C357 131 395 136 431 149C465 162 492 182 512 210C525 229 534 252 538 279C503 274 468 272 433 274C388 278 350 288 319 304C290 319 266 339 248 363C229 388 219 419 216 456C188 430 169 399 159 364C149 329 151 292 164 257C172 235 182 177 194 156Z"/>
    <path d="M467 160C498 156 527 160 553 171C579 182 600 199 615 224C622 236 627 250 630 267C611 263 593 262 575 265C555 268 537 275 520 286C502 298 488 312 479 330C471 345 466 362 464 381C447 359 436 335 431 309C427 282 431 256 441 232C447 218 455 205 467 195C462 183 462 171 467 160Z"/>
    <path d="M293 255C317 214 352 187 395 174C435 162 477 163 516 177C548 189 574 208 592 235C603 252 610 272 612 295C594 292 577 291 559 294C536 298 516 306 498 319C480 331 466 348 456 368C447 385 442 405 440 425C432 463 425 487 419 498C409 519 391 539 365 557C340 573 317 581 296 579C281 577 266 569 251 556C235 542 225 524 220 504C214 480 216 455 224 430C233 402 248 377 269 356C260 329 261 300 269 273C273 266 283 259 293 255Z"/>
    <path d="M364 212C384 196 409 189 437 190C458 191 476 196 492 206C478 214 466 225 456 238C440 258 431 283 428 312C419 305 409 299 398 295C385 290 372 288 358 289C347 289 337 292 328 296C331 278 337 262 347 247C352 239 357 230 364 212Z"/>
    <path d="M439 323C458 309 480 304 505 307C521 309 535 315 547 325C531 332 519 341 510 352C497 368 489 387 485 409C471 406 458 404 445 405C431 406 419 409 408 415C410 389 416 367 425 349C428 343 433 336 439 323Z"/>
    <path d="M285 351C304 324 330 306 363 298C391 291 418 294 445 306C437 321 433 338 431 356C429 379 432 401 440 423C424 422 408 424 392 429C370 435 351 446 333 462C317 476 305 494 298 516C282 505 270 490 263 471C256 449 257 425 265 401C271 383 277 366 285 351Z"/>
    <path d="M235 394C252 381 271 373 292 370C286 390 286 411 291 434C296 456 305 475 319 491C305 504 294 518 286 533C271 552 262 570 258 589C242 584 228 574 217 559C205 543 199 525 199 506C199 487 204 468 214 449C219 440 226 422 235 394Z"/>
    <path d="M305 116C323 106 344 100 367 99C389 98 411 101 431 109C418 118 409 129 403 142C389 141 376 140 364 141C349 142 336 145 323 150C321 138 314 127 305 116Z"/>
    <path d="M457 102C474 98 492 98 511 102C526 105 539 112 551 122C538 128 528 136 520 146C507 145 494 145 482 146C469 148 457 151 446 156C447 141 451 128 457 102Z"/>
    <path d="M236 222C253 226 267 236 277 251C286 264 291 279 292 296C280 290 269 287 258 286C245 284 232 286 220 291C221 274 223 259 228 247C231 239 233 231 236 222Z"/>
  </g>
  <g opacity="0.18" fill="#D6B47A">
    <rect x="522" y="146" width="28" height="114" rx="14"/>
    <path d="M505 158C507 148 515 139 526 135C536 132 548 134 557 141C565 147 570 157 570 167C570 181 561 192 548 196C533 201 516 194 509 181C505 174 504 166 505 158Z"/>
  </g>
</svg>
